<?xml version="1.0" encoding="UTF-8" standalone="no"?>
<!-- Created with Inkscape (http://www.inkscape.org/) -->

<svg
   xmlns:dc="http://purl.org/dc/elements/1.1/"
   xmlns:cc="http://creativecommons.org/ns#"
   xmlns:rdf="http://www.w3.org/1999/02/22-rdf-syntax-ns#"
   xmlns:svg="http://www.w3.org/2000/svg"
   xmlns="http://www.w3.org/2000/svg"
   xmlns:sodipodi="http://sodipodi.sourceforge.net/DTD/sodipodi-0.dtd"
   xmlns:inkscape="http://www.inkscape.org/namespaces/inkscape"
   width="230.15236mm"
   height="81.64724mm"
   viewBox="0 0 815.50048 289.30124"
   id="svg4308"
   version="1.1"
   inkscape:version="0.91 r13725"
   sodipodi:docname="dalnix_pastebin.svg">
  <defs
     id="defs4310">
    <clipPath
       clipPathUnits="userSpaceOnUse"
       id="clipPath4150">
      <path
         d="m 0,740.551 882.283,0 L 882.283,0 0,0 0,740.551 Z"
         id="path4152"
         inkscape:connector-curvature="0" />
    </clipPath>
  </defs>
  <sodipodi:namedview
     id="base"
     pagecolor="#ffffff"
     bordercolor="#666666"
     borderopacity="1.0"
     inkscape:pageopacity="0.0"
     inkscape:pageshadow="2"
     inkscape:zoom="0.7"
     inkscape:cx="43.953609"
     inkscape:cy="-3.8454954"
     inkscape:document-units="px"
     inkscape:current-layer="g4904"
     showgrid="false"
     fit-margin-top="0"
     fit-margin-left="0"
     fit-margin-right="0"
     fit-margin-bottom="0"
     inkscape:window-width="1920"
     inkscape:window-height="1007"
     inkscape:window-x="0"
     inkscape:window-y="27"
     inkscape:window-maximized="1" />
  <metadata
     id="metadata4313">
    <rdf:RDF>
      <cc:Work
         rdf:about="">
        <dc:format>image/svg+xml</dc:format>
        <dc:type
           rdf:resource="http://purl.org/dc/dcmitype/StillImage" />
        <dc:title></dc:title>
      </cc:Work>
    </rdf:RDF>
  </metadata>
  <g
     inkscape:label="Layer 1"
     inkscape:groupmode="layer"
     id="layer1"
     transform="translate(99.178826,-268.4375)">
    <g
       id="g4904"
       transform="translate(-745.71429,20)">
      <g
         id="g4962"
         style="fill:#ffffff">
        <g
           transform="matrix(1.25,0,0,-1.25,502.85882,1149.1265)"
           id="g4146"
           style="fill:#ffffff">
          <g
             id="g4148"
             clip-path="url(#clipPath4150)"
             style="fill:#ffffff">
            <g
               id="g4154"
               transform="translate(208.6597,572.0444)"
               style="fill:#ffffff">
              <path
                 d="M 0,0 C -0.854,0 -1.461,0.693 -1.352,1.549 L 8.862,82.408 c 0.108,0.855 0.89,1.549 1.745,1.549 l 21.314,0 c 0.997,0 4.076,-0.42 3.607,-4.129 L 25.966,4.129 C 25.497,0.42 22.312,0 21.315,0 L 0,0 Z m 39.851,114.042 -53.932,0 c -1.736,0 -3.322,-1.409 -3.541,-3.145 L -35.036,-26.94 c -0.219,-1.737 1.012,-3.145 2.748,-3.145 l 53.932,0 c 7.259,0 30.47,3.055 33.885,30.085 l 10.606,83.957 c 3.416,27.03 -19.024,30.085 -26.284,30.085"
                 style="fill:#ffffff;fill-opacity:1;fill-rule:nonzero;stroke:none"
                 id="path4156"
                 inkscape:connector-curvature="0" />
            </g>
            <g
               id="g4158"
               transform="translate(312.2407,614.9072)"
               style="fill:#ffffff">
              <path
                 d="m 0,0 c -0.855,0 -1.461,0.693 -1.354,1.549 l 4.476,35.42 c 0.47,3.705 3.653,4.125 4.649,4.125 l 18.734,0 c 0.998,0 4.076,-0.42 3.607,-4.129 L 25.639,1.546 C 25.528,0.692 24.749,0 23.894,0 L 0,0 Z M 60.72,41.094 C 64.134,68.125 41.695,71.179 34.435,71.179 l -26.993,0 c -7.259,0 -30.469,-3.054 -33.883,-30.085 l -0.002,0 -14.01,-110.897 c -0.219,-1.737 1.012,-3.145 2.748,-3.145 l 23.796,0 c 1.738,0 3.324,1.408 3.543,3.145 l 4.798,37.977 c 0.11,0.853 0.889,1.543 1.743,1.543 l 23.893,0 c 0.855,0 1.459,-0.69 1.355,-1.543 l -4.799,-37.977 c -0.219,-1.737 1.012,-3.145 2.748,-3.145 l 23.796,0 c 1.736,0 3.322,1.408 3.542,3.145 L 60.72,41.094 Z"
                 style="fill:#ffffff;fill-opacity:1;fill-rule:nonzero;stroke:none"
                 id="path4160"
                 inkscape:connector-curvature="0" />
            </g>
            <g
               id="g4162"
               transform="translate(569.877,686.0864)"
               style="fill:#ffffff">
              <path
                 d="m 0,0 -23.796,0 c -1.736,0 -3.322,-1.409 -3.541,-3.145 l -8.214,-65.011 -17.956,66.583 C -53.74,-0.705 -54.635,0 -55.503,0 l -25.369,0 c -1.737,0 -3.323,-1.409 -3.543,-3.145 l -17.412,-137.837 c -0.219,-1.737 1.011,-3.145 2.747,-3.145 l 23.796,0 c 1.736,0 3.323,1.408 3.543,3.145 l 8.213,65.013 17.957,-66.587 c 0.233,-0.868 1.127,-1.571 1.995,-1.571 l 25.369,0 c 1.736,0 3.322,1.408 3.541,3.145 L 2.748,-3.145 C 2.967,-1.409 1.736,0 0,0"
                 style="fill:#ffffff;fill-opacity:1;fill-rule:nonzero;stroke:none"
                 id="path4164"
                 inkscape:connector-curvature="0" />
            </g>
            <g
               id="g4166"
               transform="translate(612.5771,686.0864)"
               style="fill:#ffffff">
              <path
                 d="m 0,0 -23.796,0 c -1.736,0 -3.322,-1.409 -3.541,-3.145 l -17.414,-137.837 c -0.219,-1.737 1.012,-3.145 2.748,-3.145 l 23.796,0 c 1.736,0 3.322,1.408 3.542,3.145 L 2.748,-3.145 C 2.968,-1.409 1.736,0 0,0"
                 style="fill:#ffffff;fill-opacity:1;fill-rule:nonzero;stroke:none"
                 id="path4168"
                 inkscape:connector-curvature="0" />
            </g>
            <g
               id="g4170"
               transform="translate(457.3047,572.0444)"
               style="fill:#ffffff">
              <path
                 d="m 0,0 -49.105,0 c -1.736,0 -2.967,1.408 -2.748,3.145 l 13.613,107.751 c 0.219,1.737 -1.011,3.146 -2.748,3.146 l -23.796,0 c -1.736,0 -3.322,-1.409 -3.542,-3.146 L -85.739,-26.941 c -0.219,-1.737 1.012,-3.145 2.748,-3.145 l 79.19,0 c 1.737,0 3.322,1.408 3.542,3.145 L 2.748,-3.145 C 2.967,-1.408 1.736,0 0,0"
                 style="fill:#ffffff;fill-opacity:1;fill-rule:nonzero;stroke:none"
                 id="path4172"
                 inkscape:connector-curvature="0" />
            </g>
            <g
               id="g4174"
               transform="translate(673.4346,614.022)"
               style="fill:#ffffff">
              <path
                 d="m 0,0 36.962,68.92 c 0.931,1.737 0.279,3.145 -1.459,3.145 l -25.367,0 c -0.868,0 -1.95,-0.705 -2.416,-1.573 l -18.128,-33.8 -9.587,33.8 c -0.247,0.868 -1.151,1.573 -2.019,1.573 l -25.368,0 c -1.736,0 -2.745,-1.408 -2.253,-3.145 L -30.086,0 -67.048,-68.919 c -0.931,-1.736 -0.277,-3.144 1.459,-3.144 l 25.367,0 c 0.868,0 1.951,0.705 2.416,1.573 l 18.128,33.8 9.587,-33.8 c 0.247,-0.868 1.152,-1.573 2.02,-1.573 l 25.367,0 c 1.736,0 2.745,1.408 2.254,3.144 L 0,0 Z"
                 style="fill:#ffffff;fill-opacity:1;fill-rule:nonzero;stroke:none"
                 id="path4176"
                 inkscape:connector-curvature="0" />
            </g>
            <g
               id="g4178"
               transform="translate(170.3726,690.2217)"
               style="fill:#ffffff">
              <path
                 d="m 0,0 c 1.25,9.901 9.448,10.504 14.803,10.524 0.902,0.004 1.659,0.709 1.768,1.58 l 2.078,16.45 c 0.11,0.865 -0.451,1.532 -1.377,1.569 C 7.074,30.528 -25.908,33.068 -30.086,0 l -5.716,-45.229 c -1.616,-12.795 -11.488,-18.118 -15.676,-19.264 -1.236,-0.338 -1.462,-0.645 -1.571,-1.51 l -2.352,-18.62 c -0.111,-0.866 0.04,-1.171 1.188,-1.51 3.899,-1.146 12.427,-6.468 10.81,-19.266 l -5.711,-45.226 c -4.177,-33.069 29.446,-30.529 39.749,-30.125 0.933,0.038 1.663,0.706 1.771,1.57 l 2.078,16.45 c 0.111,0.871 -0.465,1.576 -1.368,1.58 -5.349,0.021 -13.395,0.622 -12.144,10.525 l 7.049,55.81 c 1.48,11.713 -5.525,17.168 -9.723,18.879 l -0.293,1.088 c 4.511,1.512 13.415,6.932 14.944,19.037 L 0,0 Z"
                 style="fill:#ffffff;fill-opacity:1;fill-rule:nonzero;stroke:none"
                 id="path4180"
                 inkscape:connector-curvature="0" />
            </g>
            <g
               id="g4182"
               transform="translate(730.9395,690.2217)"
               style="fill:#ffffff">
              <path
                 d="m 0,0 c 1.25,9.901 -6.795,10.504 -12.145,10.524 -0.902,0.004 -1.478,0.709 -1.37,1.58 l 2.079,16.45 c 0.109,0.865 0.838,1.532 1.773,1.569 C 0.637,30.528 34.263,33.068 30.085,0 l -5.712,-45.229 c -1.616,-12.795 6.912,-18.118 10.809,-19.264 1.151,-0.338 1.299,-0.645 1.191,-1.51 l -2.352,-18.62 c -0.11,-0.866 -0.335,-1.171 -1.572,-1.51 -4.188,-1.146 -14.06,-6.468 -15.677,-19.266 l -5.715,-45.226 c -4.178,-33.069 -37.161,-30.529 -47.36,-30.125 -0.925,0.038 -1.484,0.706 -1.376,1.57 l 2.079,16.45 c 0.109,0.871 0.864,1.576 1.768,1.58 5.353,0.021 13.553,0.622 14.804,10.525 l 7.049,55.81 c 1.48,11.713 9.866,17.168 14.493,18.879 l 0.57,1.088 c -4.129,1.512 -11.664,6.932 -10.135,19.037 L 0,0 Z"
                 style="fill:#ffffff;fill-opacity:1;fill-rule:nonzero;stroke:none"
                 id="path4184"
                 inkscape:connector-curvature="0" />
            </g>
          </g>
        </g>
        <g
           id="g4951"
           style="fill:#ffffff">
          <g
             transform="scale(1.0240524,0.97651253)"
             style="font-style:italic;font-variant:normal;font-weight:800;font-stretch:normal;font-size:68.87950897px;font-family:'Revolution Gothic ExtraBold It';-inkscape-font-specification:RevolutionGothic-ExtraBoldIt;writing-mode:lr-tb;fill:#ffffff;fill-opacity:1;fill-rule:nonzero;stroke:none"
             id="text4186">
            <path
               d="m 1138.9131,510.30926 c 0.1378,-0.75768 0.2067,-1.51535 0.2067,-2.13527 0,-3.99501 -2.273,-5.78588 -6.1303,-5.78588 l -2.4108,0 c -4.9593,0 -5.9236,1.92863 -6.9568,3.44398 l -0.4133,0 0.2755,-2.06639 c 0.069,-0.61991 -0.1377,-0.96431 -0.7576,-0.96431 l -6.4058,0 c -0.6199,0 -1.0332,0.3444 -1.171,0.96431 l -7.2323,45.94264 c -0.1378,0.61991 0.2066,0.96431 0.8265,0.96431 l 7.0946,0 c 0.6199,0 0.9643,-0.3444 1.1021,-0.96431 l 1.8597,-12.05392 0.4133,0 c 0.6199,1.51535 1.6531,3.44398 5.9236,3.44398 l 1.722,0 c 6.0614,0 7.5768,-2.41079 8.4722,-7.92115 l 3.5817,-22.86799 z m -12.4671,22.11032 c -0.1378,0.68879 -0.5511,1.03319 -1.2399,1.03319 l -3.6506,0 c -1.3776,0 -1.9286,-0.68879 -1.722,-2.06638 l 3.0307,-19.28627 c 0.2067,-1.37759 1.0332,-2.06638 2.4108,-2.06638 l 3.6506,0 c 0.6888,0 0.9643,0.3444 0.8955,1.03319 l -3.3751,21.35265 z"
               style="font-style:normal;font-variant:normal;font-weight:normal;font-stretch:normal;font-family:'Revolution Gothic ExtraBold It';-inkscape-font-specification:'Revolution Gothic ExtraBold It';fill:#ffffff"
               id="path4935" />
            <path
               d="m 1140.3058,533.17725 c -0.1378,0.75768 -0.2066,1.44647 -0.2066,2.13527 0,3.99501 2.3419,5.78588 6.1991,5.78588 l 2.4108,0 c 4.9593,0 5.8548,-1.92863 6.888,-3.44398 l 0.4132,0 -0.2755,2.06639 c -0.1377,0.61991 0.2067,0.96431 0.8266,0.96431 l 6.4058,0 c 0.6199,0 0.9643,-0.3444 1.102,-0.96431 l 4.5461,-28.72276 c 0.1377,-0.75767 0.1377,-1.44647 0.1377,-2.13526 0,-4.40829 -2.4796,-6.47468 -6.6813,-6.47468 l -8.2655,0 c -6.4058,0 -8.4033,2.75518 -9.2987,8.60994 l -0.4822,2.89294 c -0.069,0.61992 0.2755,0.96431 0.8954,1.03319 l 6.4747,0.61992 c 0.6888,0.0689 1.1021,-0.27552 1.171,-0.89543 l 0.6199,-3.58174 c 0.1377,-0.68879 0.4821,-1.03319 1.1709,-1.03319 l 4.3394,0 c 0.6888,0 0.9643,0.3444 0.8955,1.03319 l -1.2399,7.57675 -7.8522,0 c -6.4058,0 -8.4033,2.75518 -9.2988,8.60994 l -0.8954,5.92363 z m 13.6381,0.27552 -3.6506,0 c -0.6888,0 -0.9643,-0.3444 -0.8265,-1.03319 l 0.8954,-5.78588 c 0.069,-0.6888 0.4822,-1.03319 1.171,-1.03319 l 5.717,0 -0.8955,5.78588 c -0.2066,1.37759 -1.0332,2.06638 -2.4108,2.06638 z"
               style="font-style:normal;font-variant:normal;font-weight:normal;font-stretch:normal;font-family:'Revolution Gothic ExtraBold It';-inkscape-font-specification:'Revolution Gothic ExtraBold It';fill:#ffffff"
               id="path4937" />
            <path
               d="m 1170.4438,532.48846 c -0.1377,0.75767 -0.2066,1.44647 -0.2066,2.13526 0,4.40829 2.6174,6.47468 6.8191,6.47468 l 8.9543,0 c 6.4058,0 8.4033,-2.75518 9.2987,-8.60994 l 0.9643,-6.33692 c 0.1378,-0.75767 0.1378,-1.44647 0.1378,-2.13526 0,-4.40829 -2.4797,-6.47468 -6.6813,-6.47468 l -6.4747,0 c -0.6888,0 -0.9643,-0.34439 -0.8954,-1.03319 l 0.8954,-5.78588 c 0.1378,-0.68879 0.551,-1.03319 1.2398,-1.03319 l 3.9951,0 c 0.6887,0 0.9643,0.3444 0.8265,1.03319 l -0.4133,2.82406 c -0.1377,0.61992 0.2067,0.96432 0.8955,0.89544 l 6.6813,-0.61992 c 0.6199,-0.0689 1.1709,-0.41328 1.2398,-1.03319 l 0.2755,-1.79087 c 0.1378,-0.75767 0.1378,-1.44647 0.1378,-2.13526 0,-4.40829 -2.4797,-6.47468 -6.6813,-6.47468 l -7.9212,0 c -6.4058,0 -8.3344,2.75518 -9.2987,8.60994 l -0.8954,5.57924 c -0.1378,0.82656 -0.2067,1.51535 -0.2067,2.20415 0,4.3394 2.5486,6.40579 6.7502,6.40579 l 6.4747,0 c 0.6888,0 0.9643,0.3444 0.8954,1.03319 l -1.0332,6.54356 c -0.1377,0.68879 -0.551,1.03319 -1.2398,1.03319 l -5.0282,0 c -0.6888,0 -0.9643,-0.3444 -0.8266,-1.03319 l 0.5511,-3.58174 c 0.069,-0.61991 -0.2067,-0.96431 -0.8955,-0.89543 l -6.6813,0.61991 c -0.6888,0.0689 -1.1709,0.41328 -1.2398,1.0332 l -0.4133,2.54854 z"
               style="font-style:normal;font-variant:normal;font-weight:normal;font-stretch:normal;font-family:'Revolution Gothic ExtraBold It';-inkscape-font-specification:'Revolution Gothic ExtraBold It';fill:#ffffff"
               id="path4939" />
            <path
               d="m 1204.6683,510.44702 -3.5128,22.31696 c -0.1378,0.75767 -0.2067,1.44647 -0.2067,2.13526 0,3.99501 2.3419,5.78588 6.1992,5.78588 l 6.4058,0 c 0.551,0 0.8954,-0.3444 1.1021,-0.96431 l 1.5153,-5.717 c 0.1378,-0.55104 -0.1378,-0.96432 -0.6888,-0.96432 l -4.3394,0 c -0.6888,0 -0.9643,-0.34439 -0.8954,-1.03319 l 3.4439,-21.55928 4.615,0 c 0.551,0 0.9643,-0.3444 1.102,-0.96432 l 1.5154,-5.717 c 0.2066,-0.55103 -0.069,-0.96431 -0.6199,-0.96431 l -5.3726,0 1.2398,-8.12778 c 0.1378,-0.55104 -0.2066,-0.89544 -0.8266,-0.82656 l -7.2323,1.0332 c -0.551,0.0689 -1.0332,0.48215 -1.171,1.03319 l -1.0331,6.88795 -1.6532,0 c -0.551,0 -0.9643,0.41328 -1.1709,0.96431 l -1.5154,5.717 c -0.1377,0.61992 0.1378,0.96432 0.6888,0.96432 l 2.4108,0 z"
               style="font-style:normal;font-variant:normal;font-weight:normal;font-stretch:normal;font-family:'Revolution Gothic ExtraBold It';-inkscape-font-specification:'Revolution Gothic ExtraBold It';fill:#ffffff"
               id="path4941" />
            <path
               d="m 1220.4331,532.48846 c -0.1377,0.75767 -0.2066,1.44647 -0.2066,2.13526 0,4.40829 2.6174,6.47468 6.8191,6.47468 l 8.6099,0 c 6.4058,0 8.3344,-2.75518 9.2299,-8.60994 l 0.4821,-2.89294 c 0.069,-0.61992 -0.2755,-0.96431 -0.8954,-1.03319 l -6.4747,-0.61992 c -0.6888,-0.0689 -1.1021,0.27552 -1.171,0.89543 l -0.551,3.58174 c -0.1377,0.68879 -0.551,1.03319 -1.2398,1.03319 l -4.6838,0 c -0.6888,0 -0.9643,-0.3444 -0.8266,-1.03319 l 1.171,-7.57675 14.4647,0 c 0.6199,0 1.0332,-0.34439 1.102,-0.96431 l 2.0664,-12.88047 c 0.1378,-0.75767 0.1378,-1.44647 0.1378,-2.13526 0,-4.40829 -2.4797,-6.47468 -6.6813,-6.47468 l -8.61,0 c -6.4058,0 -8.4033,2.75518 -9.2987,8.60994 l -3.444,21.49041 z m 12.4672,-21.42153 c 0.069,-0.68879 0.4822,-1.03319 1.171,-1.03319 l 4.6838,0 c 0.6888,0 0.9643,0.3444 0.8954,1.03319 l -1.1021,6.81907 -6.7502,0 1.1021,-6.81907 z"
               style="font-style:normal;font-variant:normal;font-weight:normal;font-stretch:normal;font-family:'Revolution Gothic ExtraBold It';-inkscape-font-specification:'Revolution Gothic ExtraBold It';fill:#ffffff"
               id="path4943" />
            <path
               d="m 1279.2282,510.30926 c 0.1378,-0.75768 0.2067,-1.51535 0.2067,-2.13527 0,-3.99501 -2.273,-5.78588 -6.1303,-5.78588 l -1.722,0 c -4.9593,0 -5.9236,1.92863 -6.9568,3.44398 l -0.4133,0 2.0664,-13.08711 c 0.069,-0.61991 -0.2066,-0.96431 -0.8266,-0.96431 l -7.0945,0 c -0.62,0 -1.0332,0.3444 -1.1021,0.96431 l -7.439,46.97583 c -0.1378,0.61991 0.2066,0.96431 0.8265,0.96431 l 6.4058,0 c 0.62,0 0.9644,-0.3444 1.1021,-0.96431 l 0.2755,-2.06639 0.4133,0 c 0.6199,1.51535 1.6531,3.44398 5.9236,3.44398 l 2.4108,0 c 6.0614,0 7.5768,-2.41079 8.4722,-7.92115 l 3.5817,-22.86799 z m -16.0489,1.79086 c 0.2067,-1.37759 1.0332,-2.06638 2.4108,-2.06638 l 3.6506,0 c 0.6888,0 0.9643,0.3444 0.8954,1.03319 l -3.375,21.35265 c -0.1378,0.68879 -0.5511,1.03319 -1.2399,1.03319 l -3.6506,0 c -1.1709,0 -1.7909,-0.48216 -1.7909,-1.51535 0,-0.20664 0,-0.3444 0.069,-0.55103 l 3.0307,-19.28627 z"
               style="font-style:normal;font-variant:normal;font-weight:normal;font-stretch:normal;font-family:'Revolution Gothic ExtraBold It';-inkscape-font-specification:'Revolution Gothic ExtraBold It';fill:#ffffff"
               id="path4945" />
            <path
               d="m 1280.7587,539.72081 c -0.1378,0.61991 0.2066,0.96431 0.8265,0.96431 l 7.0946,0 c 0.6199,0 0.9643,-0.3444 1.1021,-0.96431 l 5.6481,-35.95511 c 0.1378,-0.61991 -0.1378,-0.96431 -0.7577,-0.96431 l -7.0946,0 c -0.6199,0 -1.0332,0.3444 -1.1709,0.96431 l -5.6481,35.95511 z m 7.4389,-46.97583 -0.8954,5.64812 c -0.1377,0.61992 0.2067,0.96431 0.8266,0.96431 l 7.0946,0 c 0.6199,0 0.9643,-0.34439 1.102,-0.96431 l 0.8955,-5.64812 c 0.069,-0.61991 -0.2067,-0.96431 -0.8266,-0.96431 l -7.0946,0 c -0.6199,0 -1.0332,0.3444 -1.1021,0.96431 z"
               style="font-style:normal;font-variant:normal;font-weight:normal;font-stretch:normal;font-family:'Revolution Gothic ExtraBold It';-inkscape-font-specification:'Revolution Gothic ExtraBold It';fill:#ffffff"
               id="path4947" />
            <path
               d="m 1325.497,510.30926 c 0.1377,-0.75768 0.2066,-1.51535 0.2066,-2.13527 0,-3.99501 -2.273,-5.78588 -6.1303,-5.78588 l -2.0664,0 c -4.2705,0 -5.9236,1.92863 -6.9568,3.44398 l -0.4133,0 0.2756,-2.06639 c 0.1377,-0.61991 -0.1378,-0.96431 -0.7577,-0.96431 l -6.4058,0 c -0.6199,0 -1.0332,0.3444 -1.171,0.96431 l -5.6481,35.95511 c -0.1377,0.61991 0.2067,0.96431 0.8266,0.96431 l 7.0946,0 c 0.6199,0 0.9643,-0.3444 1.102,-0.96431 l 4.3394,-27.62069 c 0.2067,-1.37759 1.0332,-2.06638 2.4108,-2.06638 l 3.3062,0 c 0.6888,0 0.9644,0.3444 0.8955,1.03319 l -4.5461,28.65388 c -0.1377,0.61991 0.2067,0.96431 0.8266,0.96431 l 7.0946,0 c 0.6199,0 0.9643,-0.3444 1.102,-0.96431 l 4.615,-29.41155 z"
               style="font-style:normal;font-variant:normal;font-weight:normal;font-stretch:normal;font-family:'Revolution Gothic ExtraBold It';-inkscape-font-specification:'Revolution Gothic ExtraBold It';fill:#ffffff"
               id="path4949" />
          </g>
        </g>
      </g>
    </g>
  </g>
</svg>
